<svg width="16" height="14" viewBox="0 0 16 14" fill="none" xmlns="http://www.w3.org/2000/svg">
<path fill-rule="evenodd" clip-rule="evenodd" d="M7.18849 0.0965898C7.91338 0.322095 8.2072 0.87052 7.84475 1.32153L3.28135 7L7.84475 12.6785C8.2072 13.1295 7.91338 13.6779 7.18849 13.9034C6.46359 14.1289 5.58212 13.9461 5.21968 13.4951L0 7L5.21968 0.504904C5.58212 0.0538927 6.46359 -0.128916 7.18849 0.0965898Z" fill="#ADBAC7"/>
<path fill-rule="evenodd" clip-rule="evenodd" d="M15.1885 0.0965898C15.9134 0.322095 16.2072 0.87052 15.8448 1.32153L11.2813 7L15.8448 12.6785C16.2072 13.1295 15.9134 13.6779 15.1885 13.9034C14.4636 14.1289 13.5821 13.9461 13.2197 13.4951L8 7L13.2197 0.504904C13.5821 0.0538927 14.4636 -0.128916 15.1885 0.0965898Z" fill="#ADBAC7"/>
</svg>
