<svg width="16" height="16" viewBox="0 0 16 16" fill="none" xmlns="http://www.w3.org/2000/svg">
<path fill-rule="evenodd" clip-rule="evenodd" d="M4.5 2.57052C4.5 2.79784 4.40782 3.01585 4.24372 3.17658C4.07963 3.33732 3.85707 3.42762 3.625 3.42762C3.39294 3.42762 3.17038 3.33732 3.00629 3.17658C2.84219 3.01585 2.75 2.79784 2.75 2.57052C2.75 2.34321 2.84219 2.1252 3.00629 1.96446C3.17038 1.80372 3.39294 1.71342 3.625 1.71342C3.85707 1.71342 4.07963 1.80372 4.24372 1.96446C4.40782 2.1252 4.5 2.34321 4.5 2.57052ZM4.5 4.99555C5.08381 4.79336 5.57586 4.39552 5.88918 3.87233C6.2025 3.34915 6.31691 2.73431 6.2122 2.13649C6.10749 1.53866 5.79039 0.996348 5.31695 0.605389C4.84352 0.214429 4.24423 0 3.625 0C3.00578 0 2.40649 0.214429 1.93305 0.605389C1.45962 0.996348 1.14252 1.53866 1.03781 2.13649C0.933097 2.73431 1.04751 3.34915 1.36083 3.87233C1.67414 4.39552 2.16619 4.79336 2.75 4.99555V5.99892C2.75 6.68087 3.02657 7.33489 3.51885 7.81711C4.01113 8.29932 4.67881 8.57022 5.375 8.57022H7.125V11.0021C6.54086 11.2043 6.04851 11.6023 5.73497 12.1257C5.42144 12.6491 5.3069 13.2642 5.41162 13.8624C5.51634 14.4605 5.83356 15.0031 6.30722 15.3943C6.78087 15.7855 7.38046 16 8 16C8.61954 16 9.21913 15.7855 9.69278 15.3943C10.1664 15.0031 10.4837 14.4605 10.5884 13.8624C10.6931 13.2642 10.5786 12.6491 10.265 12.1257C9.95149 11.6023 9.45914 11.2043 8.875 11.0021V8.57022H10.625C11.3212 8.57022 11.9889 8.29932 12.4812 7.81711C12.9734 7.33489 13.25 6.68087 13.25 5.99892V4.99555C13.8338 4.79336 14.3259 4.39552 14.6392 3.87233C14.9525 3.34915 15.0669 2.73431 14.9622 2.13649C14.8575 1.53866 14.5404 0.996348 14.0669 0.605389C13.5935 0.214429 12.9942 0 12.375 0C11.7558 0 11.1565 0.214429 10.683 0.605389C10.2096 0.996348 9.89252 1.53866 9.7878 2.13649C9.68309 2.73431 9.7975 3.34915 10.1108 3.87233C10.4241 4.39552 10.9162 4.79336 11.5 4.99555V5.99892C11.5 6.22624 11.4078 6.44425 11.2437 6.60498C11.0796 6.76572 10.8571 6.85602 10.625 6.85602H5.375C5.14294 6.85602 4.92038 6.76572 4.75628 6.60498C4.59219 6.44425 4.5 6.22624 4.5 5.99892V4.99555ZM8.875 13.4271C8.875 13.6544 8.78281 13.8724 8.61872 14.0332C8.45462 14.1939 8.23206 14.2842 8 14.2842C7.76794 14.2842 7.54538 14.1939 7.38128 14.0332C7.21719 13.8724 7.125 13.6544 7.125 13.4271C7.125 13.1998 7.21719 12.9818 7.38128 12.8211C7.54538 12.6603 7.76794 12.57 8 12.57C8.23206 12.57 8.45462 12.6603 8.61872 12.8211C8.78281 12.9818 8.875 13.1998 8.875 13.4271ZM12.375 3.42762C12.6071 3.42762 12.8296 3.33732 12.9937 3.17658C13.1578 3.01585 13.25 2.79784 13.25 2.57052C13.25 2.34321 13.1578 2.1252 12.9937 1.96446C12.8296 1.80372 12.6071 1.71342 12.375 1.71342C12.1429 1.71342 11.9204 1.80372 11.7563 1.96446C11.5922 2.1252 11.5 2.34321 11.5 2.57052C11.5 2.79784 11.5922 3.01585 11.7563 3.17658C11.9204 3.33732 12.1429 3.42762 12.375 3.42762Z" fill="#ADBAC7"/>
</svg>
