<svg width="20" height="20" viewBox="0 0 20 20" fill="none" xmlns="http://www.w3.org/2000/svg">
<circle cx="10" cy="10" r="10" fill="#ADBAC7"/>
<path d="M9.26415 12.0425C9.22222 11.9255 9.18868 11.795 9.16352 11.6509C9.14256 11.5024 9.13208 11.3628 9.13208 11.2323C9.13208 11.0252 9.15094 10.8361 9.18868 10.6651C9.22642 10.494 9.28302 10.3342 9.35849 10.1857C9.43396 10.0326 9.5283 9.88859 9.64151 9.75354C9.75472 9.614 9.88679 9.47671 10.0377 9.34166C10.1971 9.19761 10.3354 9.06482 10.4528 8.94328C10.5744 8.81724 10.6771 8.69345 10.761 8.57191C10.8449 8.44587 10.9078 8.31758 10.9497 8.18704C10.9916 8.05199 11.0126 7.90344 11.0126 7.74139C11.0126 7.60185 10.9895 7.47355 10.9434 7.35652C10.8973 7.23498 10.8302 7.13144 10.7421 7.04591C10.6583 6.96039 10.5535 6.89287 10.4277 6.84335C10.3061 6.79383 10.1698 6.76907 10.0189 6.76907C9.69182 6.76907 9.3522 6.84335 9 6.9919C8.6478 7.13594 8.31447 7.35652 8 7.65361V5.6212C8.32285 5.41413 8.67505 5.25883 9.0566 5.1553C9.43816 5.05177 9.83229 5 10.239 5C10.6289 5 10.9916 5.04727 11.327 5.1418C11.6625 5.23183 11.9539 5.37587 12.2013 5.57394C12.4528 5.772 12.6478 6.02633 12.7862 6.33693C12.9287 6.64303 13 7.01215 13 7.44429C13 7.71888 12.9706 7.96871 12.9119 8.19379C12.8532 8.41436 12.7673 8.62368 12.6541 8.82174C12.5409 9.01981 12.4004 9.21112 12.2327 9.39568C12.065 9.57574 11.8721 9.76255 11.6541 9.95611C11.5073 10.0867 11.3774 10.2082 11.2642 10.3207C11.1551 10.4333 11.0629 10.5458 10.9874 10.6583C10.9161 10.7664 10.8616 10.8834 10.8239 11.0095C10.7862 11.131 10.7673 11.2705 10.7673 11.4281C10.7673 11.5361 10.7799 11.6464 10.805 11.7589C10.8344 11.8715 10.8721 11.966 10.9182 12.0425H9.26415ZM10.1824 15C9.84696 15 9.56813 14.892 9.34591 14.6759C9.12369 14.4508 9.01258 14.1852 9.01258 13.8791C9.01258 13.564 9.12369 13.3007 9.34591 13.0891C9.56813 12.8776 9.84696 12.7718 10.1824 12.7718C10.5136 12.7718 10.7883 12.8776 11.0063 13.0891C11.2243 13.2962 11.3333 13.5595 11.3333 13.8791C11.3333 14.2032 11.2264 14.4711 11.0126 14.6826C10.7945 14.8942 10.5178 15 10.1824 15Z" fill="#22272E"/>
</svg>
