<svg width="16" height="14" viewBox="0 0 16 14" fill="none" xmlns="http://www.w3.org/2000/svg">
<path fill-rule="evenodd" clip-rule="evenodd" d="M8.81151 13.9034C8.08662 13.6779 7.7928 13.1295 8.15525 12.6785L12.7187 7L8.15525 1.32153C7.7928 0.87052 8.08662 0.322094 8.81152 0.0965896C9.53641 -0.128916 10.4179 0.0538918 10.7803 0.504903L16 7L10.7803 13.4951C10.4179 13.9461 9.53641 14.1289 8.81151 13.9034Z" fill="#ADBAC7"/>
<path fill-rule="evenodd" clip-rule="evenodd" d="M0.811515 13.9034C0.0866199 13.6779 -0.207202 13.1295 0.155245 12.6785L4.71865 7L0.155247 1.32153C-0.2072 0.87052 0.0866216 0.322094 0.811517 0.0965896C1.53641 -0.128916 2.41788 0.0538918 2.78032 0.504903L8 7L2.78032 13.4951C2.41788 13.9461 1.53641 14.1289 0.811515 13.9034Z" fill="#ADBAC7"/>
</svg>
