<svg width="30" height="30" viewBox="0 0 30 30" fill="none" xmlns="http://www.w3.org/2000/svg">
<g clip-path="url(#clip0)">
<path fill-rule="evenodd" clip-rule="evenodd" d="M15 0C6.71779 0 0 6.88679 0 15.3774C0 22.1698 4.32515 27.9245 10.2147 30C10.9509 30.0943 11.227 29.6226 11.227 29.2453C11.227 28.8679 11.227 27.9245 11.227 26.6038C7.08589 27.5472 6.16564 24.5283 6.16564 24.5283C5.52147 22.7358 4.5092 22.2642 4.5092 22.2642C3.12883 21.3208 4.60123 21.3208 4.60123 21.3208C6.07362 21.4151 6.90184 22.9245 6.90184 22.9245C8.28221 25.283 10.3988 24.6226 11.227 24.2453C11.319 23.2075 11.7791 22.5472 12.1472 22.1698C8.83436 21.7925 5.33742 20.4717 5.33742 14.5283C5.33742 12.8302 5.88957 11.5094 6.90184 10.3774C6.80982 10.0943 6.25767 8.49057 7.08589 6.41509C7.08589 6.41509 8.37423 6.03774 11.227 8.01887C12.4233 7.64151 13.7117 7.54717 15 7.54717C16.2883 7.54717 17.5767 7.73585 18.773 8.01887C21.6258 6.03774 22.9141 6.41509 22.9141 6.41509C23.7423 8.49057 23.1902 10.0943 23.0982 10.4717C24.0184 11.5094 24.6626 12.9245 24.6626 14.6226C24.6626 20.566 21.1656 21.7925 17.8528 22.1698C18.4049 22.6415 18.865 23.5849 18.865 25C18.865 27.0755 18.865 28.6792 18.865 29.2453C18.865 29.6226 19.1411 30.0943 19.8773 30C25.8589 27.9245 30.092 22.1698 30.092 15.3774C30 6.88679 23.2822 0 15 0Z" fill="#ADBAC7"/>
</g>
<defs>
<clipPath id="clip0">
<rect width="30" height="30" fill="white"/>
</clipPath>
</defs>
</svg>
