<svg width="16" height="20" viewBox="0 0 16 20" fill="none" xmlns="http://www.w3.org/2000/svg">
<path d="M2.74286 5.62238e-05C1.24994 5.62238e-05 0 1.18887 0 2.60875V17.8261C0 19.0192 1.03129 20 2.28571 20H15.3143C15.6733 20 16 19.6893 16 19.3478V4.56527C15.9977 4.18241 15.7065 3.9097 15.3143 3.9131C14.6545 3.9131 13.9429 3.23626 13.9429 2.60875C13.9429 1.98125 14.6545 1.3044 15.3143 1.3044C15.6765 1.30927 16 0.996817 16 0.65223C16 0.307643 15.6765 -0.00481551 15.3143 5.62238e-05H2.74286ZM2.74286 1.3044H12.95C12.7106 1.69025 12.5714 2.13658 12.5714 2.60875C12.5714 3.08093 12.7106 3.52725 12.95 3.9131H2.74286C2.08309 3.9131 1.37143 3.23626 1.37143 2.60875C1.37143 1.98125 2.08309 1.3044 2.74286 1.3044ZM1.37143 4.85739C1.77673 5.08452 2.24709 5.21745 2.74286 5.21745H14.6286V18.6957H2.28571C1.76734 18.6957 1.37143 18.3191 1.37143 17.8261V4.85739ZM3.88571 7.82614C3.50702 7.82614 3.2 8.11813 3.2 8.47832C3.2 8.8385 3.50702 9.13049 3.88571 9.13049H12.1143C12.493 9.13049 12.8 8.8385 12.8 8.47832C12.8 8.11813 12.493 7.82614 12.1143 7.82614H3.88571ZM3.88571 11.3044C3.50702 11.3044 3.2 11.5964 3.2 11.9566C3.2 12.3168 3.50702 12.6088 3.88571 12.6088H12.1143C12.493 12.6088 12.8 12.3168 12.8 11.9566C12.8 11.5964 12.493 11.3044 12.1143 11.3044H3.88571ZM3.88571 14.7827C3.50702 14.7827 3.2 15.0747 3.2 15.4348C3.2 15.795 3.50702 16.087 3.88571 16.087H12.1143C12.493 16.087 12.8 15.795 12.8 15.4348C12.8 15.0747 12.493 14.7827 12.1143 14.7827H3.88571Z" fill="#ADBAC7"/>
</svg>
