<svg width="16" height="16" viewBox="0 0 16 16" fill="none" xmlns="http://www.w3.org/2000/svg">
<path d="M4.55525 3.4183C4.20131 3.4183 3.91468 3.12892 3.91468 2.77198V0.646329C3.91468 0.289383 4.20131 0 4.55525 0C4.90885 0 5.19582 0.289383 5.19582 0.646329V2.77198C5.19582 3.12892 4.90885 3.4183 4.55525 3.4183ZM11.4448 3.4183C11.0912 3.4183 10.8042 3.12892 10.8042 2.77198V0.646329C10.8042 0.289383 11.0912 0 11.4448 0C11.7987 0 12.0853 0.289383 12.0853 0.646329V2.77198C12.0853 3.12892 11.7987 3.4183 11.4448 3.4183ZM0.854099 1.57963H3.14599V2.77198C3.14599 3.55602 3.77819 4.1939 4.55525 4.1939C5.33231 4.1939 5.96451 3.55602 5.96451 2.77198V1.57963H10.0355V2.77198C10.0355 3.55602 10.6677 4.1939 11.4448 4.1939C12.2218 4.1939 12.854 3.55602 12.854 2.77198V1.57963H15.1459C15.6177 1.57963 16 1.96536 16 2.4414V5.97466H9.53674e-07V2.4414C9.53674e-07 1.96536 0.382295 1.57963 0.854099 1.57963ZM16 15.1382C16 15.6143 15.6177 16 15.1459 16H0.854099C0.382295 16 9.53674e-07 15.6143 9.53674e-07 15.1382V6.66408H16V15.1382Z" fill="#ADBAC7"/>
</svg>
