<svg width="16" height="16" viewBox="0 0 16 16" fill="none" xmlns="http://www.w3.org/2000/svg">
<path d="M12.5191 15.9999C12.4076 16 12.2977 15.9716 12.199 15.9172L7.99995 13.6062L3.80094 15.9172C3.68734 15.9798 3.55928 16.0078 3.43125 15.9981C3.30322 15.9885 3.18033 15.9415 3.07648 15.8625C2.97263 15.7835 2.89196 15.6757 2.8436 15.5513C2.79525 15.4268 2.78113 15.2906 2.80285 15.1582L3.6048 10.2635L0.207744 6.7971C0.115838 6.70334 0.0508258 6.58453 0.0200585 6.4541C-0.0107088 6.32368 -0.00600398 6.18684 0.0336409 6.05907C0.0732858 5.9313 0.146289 5.81768 0.244396 5.73108C0.342504 5.64447 0.461801 5.58833 0.588799 5.56899L5.28373 4.85474L7.38324 0.401464C7.44003 0.280961 7.52789 0.179497 7.6369 0.108549C7.7459 0.0376007 7.8717 0 8.00006 0C8.12842 0 8.25421 0.0376007 8.36322 0.108549C8.47222 0.179497 8.56009 0.280961 8.61687 0.401464L10.7163 4.85476L15.4112 5.56902C15.5382 5.58835 15.6575 5.6445 15.7556 5.7311C15.8537 5.81771 15.9267 5.93132 15.9664 6.05909C16.006 6.18686 16.0107 6.3237 15.9799 6.45412C15.9492 6.58455 15.8842 6.70336 15.7923 6.79713L12.3951 10.2635L13.1971 15.1582C13.214 15.2615 13.2092 15.3675 13.1829 15.4687C13.1566 15.5699 13.1096 15.6639 13.045 15.744C12.9805 15.8242 12.8999 15.8886 12.8091 15.9328C12.7183 15.977 12.6193 15.9999 12.5191 15.9999ZM7.99995 12.0728C8.11151 12.0727 8.22139 12.1011 8.32012 12.1555L11.6057 13.9639L10.9781 10.1338C10.9592 10.0188 10.9674 9.90062 11.0019 9.78958C11.0364 9.67855 11.0961 9.57795 11.176 9.49646L13.834 6.78422L10.1605 6.22536C10.0501 6.20853 9.94535 6.16389 9.85515 6.09528C9.76494 6.02667 9.692 5.93615 9.64261 5.8315L7.99995 2.34697L6.3573 5.83148C6.3079 5.93613 6.23497 6.02665 6.14476 6.09525C6.05455 6.16386 5.94978 6.2085 5.83944 6.22534L2.16587 6.78422L4.82388 9.49649C4.90375 9.57797 4.96351 9.67857 4.99799 9.78961C5.03247 9.90064 5.04064 10.0188 5.0218 10.1339L4.39424 13.9639L7.67981 12.1556C7.77853 12.1012 7.8884 12.0728 7.99995 12.0728Z" fill="#ADBAC7"/>
</svg>
